<svg xmlns="http://www.w3.org/2000/svg" viewBox="0 0 72 72" width="72" height="72" fill="none">
  <!-- ears -->
  <path d="M30 30 C 26 19, 27 7, 31 7 C 35 7, 35 20, 33 31" stroke="#2B3A4A" stroke-width="1.6" stroke-linecap="round" stroke-linejoin="round"/>
  <path d="M42 30 C 46 19, 45 7, 41 7 C 37 7, 37 20, 39 31" stroke="#2B3A4A" stroke-width="1.6" stroke-linecap="round" stroke-linejoin="round"/>
  <!-- head -->
  <circle cx="36" cy="36" r="9" stroke="#2B3A4A" stroke-width="1.6"/>
  <!-- body -->
  <path d="M36 45 C 28 45, 22 50, 22 57 C 22 61, 26 63, 32 63
           L 48 63 C 52 63, 54 60, 53 56 C 52 50, 47 45, 40 45 Z"
        stroke="#2B3A4A" stroke-width="1.6" stroke-linejoin="round"/>
  <!-- eye + nose -->
  <circle cx="33" cy="35" r="1.2" fill="#2B3A4A"/>
  <path d="M36 38 l 0 2" stroke="#2B3A4A" stroke-width="1.1" stroke-linecap="round"/>
  <!-- tail -->
  <circle cx="52" cy="57" r="3" stroke="#2B3A4A" stroke-width="1.3"/>
  <!-- front paws -->
  <path d="M30 63 C 30 59, 33 57, 36 57" stroke="#2B3A4A" stroke-width="1.1" stroke-linecap="round"/>
</svg>
